<?xml version="1.0" encoding="UTF-8" standalone="no"?>
<!-- Generator: Adobe Illustrator 12.0.1, SVG Export Plug-In . SVG Version: 6.00 Build 51448)  -->
<svg
   xmlns:dc="http://purl.org/dc/elements/1.1/"
   xmlns:cc="http://web.resource.org/cc/"
   xmlns:rdf="http://www.w3.org/1999/02/22-rdf-syntax-ns#"
   xmlns:svg="http://www.w3.org/2000/svg"
   xmlns="http://www.w3.org/2000/svg"
   xmlns:sodipodi="http://sodipodi.sourceforge.net/DTD/sodipodi-0.dtd"
   xmlns:inkscape="http://www.inkscape.org/namespaces/inkscape"
   version="1.1"
   id="Layer_1"
   width="137.122"
   height="141.303"
   viewBox="0 0 137.122 141.303"
   style="overflow:visible;enable-background:new 0 0 137.122 141.303;"
   xml:space="preserve"
   sodipodi:version="0.32"
   inkscape:version="0.44.1"
   sodipodi:docname="meta-Xylol - meta-xylene 2.svg"
   sodipodi:docbase="E:\Eigene Dateien"><metadata
   id="metadata48"><rdf:RDF><cc:Work
       rdf:about=""><dc:format>image/svg+xml</dc:format><dc:type
         rdf:resource="http://purl.org/dc/dcmitype/StillImage" /></cc:Work></rdf:RDF></metadata><defs
   id="defs46" /><sodipodi:namedview
   inkscape:window-height="573"
   inkscape:window-width="925"
   inkscape:pageshadow="2"
   inkscape:pageopacity="0.0"
   guidetolerance="10.0"
   gridtolerance="10.0"
   objecttolerance="10.0"
   borderopacity="1.0"
   bordercolor="#666666"
   pagecolor="#ffffff"
   id="base"
   inkscape:zoom="2.6751026"
   inkscape:cx="68.560997"
   inkscape:cy="70.651497"
   inkscape:window-x="66"
   inkscape:window-y="66"
   inkscape:current-layer="Layer_1" />
<path
   d="M 5.042125,104.97743 L 3.428075,105.92743 L 3.428075,67.262425 L 5.042125,68.212425 L 5.042125,104.97743 z "
   id="polygon3" />
<path
   d="M 9.0796249,71.014922 L 10.693675,71.014922 L 10.693675,102.17493 L 9.0796249,102.17493 L 9.0796249,71.014922 z "
   id="rect5" />
<path
   d="M 36.915575,123.35993 L 36.915575,125.21243 L 3.428075,105.92743 L 5.042125,104.97743 L 36.915575,123.35993 z "
   id="polygon7" />
<path
   d="M 68.740575,104.97743 L 69.548075,105.45243 L 69.548075,106.35493 L 36.915575,125.21243 L 36.915575,123.35993 L 68.740575,104.97743 z "
   id="polygon9" />
<path
   d="M 63.467125,101.46243 L 64.274625,102.88743 L 37.293675,118.46743 L 36.487125,117.04242 L 63.467125,101.46243 z "
   id="polygon11" />
<path
   d="M 68.740575,68.212425 L 70.354625,67.262425 L 70.354625,104.97743 L 69.548075,105.45243 L 68.740575,104.97743 L 68.740575,68.212425 z "
   id="polygon13" />
<path
   d="M 36.915575,49.829925 L 36.915575,48.879925 L 37.723075,48.404925 L 70.354625,67.262425 L 68.740575,68.212425 L 36.915575,49.829925 z "
   id="polygon15" />
<path
   d="M 36.487125,56.099925 L 37.293675,54.722425 L 64.274625,70.302425 L 63.467125,71.727425 L 36.487125,56.099925 z "
   id="polygon17" />
<path
   d="M 5.042125,68.212425 L 3.428075,67.262425 L 36.106175,48.404925 L 36.915575,48.879925 L 36.915575,49.829925 L 5.042125,68.212425 z "
   id="polygon19" />
<g
   id="g21"
   transform="matrix(0.95,0,0,0.95,3.428075,3.532625)">
	<path
   d="M 40.693,11.457 L 42.974,12.031 C 42.498,13.901 41.641,15.327 40.405,16.308 C 39.168,17.29 37.655,17.781 35.868,17.781 C 34.018,17.781 32.514,17.404 31.355,16.649 C 30.196,15.894 29.314,14.802 28.709,13.371 C 28.104,11.94 27.802,10.404 27.802,8.762 C 27.802,6.971 28.143,5.409 28.826,4.076 C 29.509,2.742 30.48,1.73 31.741,1.038 C 33,0.346 34.387,0 35.901,0 C 37.618,0 39.061,0.438 40.231,1.314 C 41.402,2.191 42.217,3.423 42.677,5.011 L 40.443,5.538 C 40.045,4.288 39.468,3.378 38.712,2.808 C 37.955,2.238 37.003,1.953 35.857,1.953 C 34.539,1.953 33.437,2.269 32.551,2.902 C 31.666,3.535 31.044,4.384 30.685,5.451 C 30.326,6.518 30.147,7.617 30.147,8.75 C 30.147,10.211 30.359,11.486 30.784,12.576 C 31.209,13.666 31.869,14.48 32.766,15.019 C 33.663,15.558 34.633,15.828 35.678,15.828 C 36.949,15.828 38.024,15.461 38.905,14.726 C 39.786,13.991 40.381,12.902 40.693,11.457 z "
   id="path23" />
	<path
   d="M 45.869,17.484 L 45.869,0.297 L 48.15,0.297 L 48.15,7.36 L 57.041,7.36 L 57.041,0.297 L 59.322,0.297 L 59.322,17.485 L 57.041,17.485 L 57.041,9.391 L 48.15,9.391 L 48.15,17.485 L 45.869,17.485 L 45.869,17.484 z "
   id="path25" />
</g>
<g
   id="g27"
   transform="matrix(0.95,0,0,0.95,3.428075,3.532625)">
	<path
   d="M 59.919,18.578 L 61.497,18.359 C 61.68,19.255 61.989,19.902 62.425,20.297 C 62.862,20.693 63.397,20.891 64.032,20.891 C 64.785,20.891 65.418,20.633 65.931,20.118 C 66.444,19.603 66.7,18.965 66.7,18.204 C 66.7,17.477 66.462,16.879 65.984,16.407 C 65.507,15.936 64.901,15.7 64.165,15.7 C 63.864,15.7 63.49,15.759 63.043,15.876 L 63.22,14.485 C 63.326,14.497 63.411,14.503 63.476,14.503 C 64.15,14.503 64.757,14.327 65.297,13.977 C 65.837,13.626 66.107,13.085 66.107,12.354 C 66.107,11.775 65.91,11.295 65.516,10.916 C 65.122,10.536 64.614,10.346 63.991,10.346 C 63.374,10.346 62.859,10.54 62.448,10.928 C 62.036,11.317 61.772,11.899 61.655,12.674 L 60.077,12.393 C 60.27,11.331 60.711,10.508 61.397,9.924 C 62.083,9.341 62.937,9.049 63.958,9.049 C 64.662,9.049 65.311,9.199 65.903,9.501 C 66.495,9.802 66.948,10.213 67.263,10.733 C 67.576,11.254 67.734,11.806 67.734,12.391 C 67.734,12.947 67.585,13.453 67.286,13.909 C 66.987,14.365 66.545,14.727 65.959,14.997 C 66.721,15.173 67.313,15.537 67.738,16.092 C 68.162,16.645 68.375,17.338 68.375,18.17 C 68.375,19.295 67.964,20.249 67.142,21.031 C 66.32,21.814 65.281,22.205 64.025,22.205 C 62.892,22.205 61.951,21.869 61.203,21.195 C 60.451,20.521 60.024,19.648 59.919,18.578 z "
   id="path29" />
</g>
<path
   d="M 36.106175,22.612425 L 37.723075,22.612425 L 37.723075,48.404925 L 36.915575,48.879925 L 36.106175,48.404925 L 36.106175,22.612425 z "
   id="polygon31" />
<g
   id="g33"
   transform="matrix(0.95,0,0,0.95,3.428075,3.532625)">
	<path
   d="M 109.443,130.557 L 111.724,131.131 C 111.247,133.001 110.39,134.427 109.154,135.408 C 107.918,136.39 106.405,136.881 104.618,136.881 C 102.768,136.881 101.264,136.504 100.105,135.749 C 98.945,134.994 98.064,133.902 97.459,132.471 C 96.855,131.04 96.553,129.504 96.553,127.862 C 96.553,126.071 96.894,124.509 97.576,123.176 C 98.259,121.842 99.23,120.83 100.49,120.138 C 101.75,119.446 103.136,119.1 104.65,119.1 C 106.367,119.1 107.81,119.538 108.98,120.414 C 110.152,121.291 110.966,122.523 111.427,124.111 L 109.193,124.638 C 108.795,123.388 108.217,122.478 107.461,121.908 C 106.705,121.338 105.752,121.053 104.606,121.053 C 103.288,121.053 102.186,121.369 101.301,122.002 C 100.415,122.635 99.793,123.484 99.434,124.551 C 99.076,125.617 98.897,126.717 98.897,127.85 C 98.897,129.311 99.109,130.586 99.534,131.676 C 99.959,132.766 100.62,133.58 101.516,134.119 C 102.412,134.658 103.383,134.928 104.427,134.928 C 105.698,134.928 106.774,134.561 107.655,133.826 C 108.536,133.091 109.131,132.002 109.443,130.557 z "
   id="path35" />
	<path
   d="M 114.619,136.584 L 114.619,119.396 L 116.9,119.396 L 116.9,126.459 L 125.791,126.459 L 125.791,119.396 L 128.072,119.396 L 128.072,136.584 L 125.791,136.584 L 125.791,128.49 L 116.9,128.49 L 116.9,136.584 L 114.619,136.584 z "
   id="path37" />
</g>
<g
   id="g39"
   transform="matrix(0.95,0,0,0.95,3.428075,3.532625)">
	<path
   d="M 128.669,137.678 L 130.247,137.459 C 130.43,138.355 130.739,139.002 131.175,139.397 C 131.612,139.793 132.147,139.991 132.782,139.991 C 133.535,139.991 134.168,139.733 134.681,139.218 C 135.193,138.703 135.45,138.065 135.45,137.304 C 135.45,136.577 135.212,135.979 134.734,135.507 C 134.257,135.036 133.65,134.8 132.915,134.8 C 132.614,134.8 132.24,134.859 131.793,134.976 L 131.97,133.585 C 132.076,133.597 132.161,133.603 132.226,133.603 C 132.901,133.603 133.507,133.427 134.047,133.077 C 134.586,132.726 134.857,132.185 134.857,131.454 C 134.857,130.875 134.66,130.395 134.266,130.016 C 133.871,129.636 133.364,129.446 132.741,129.446 C 132.124,129.446 131.609,129.64 131.198,130.028 C 130.786,130.417 130.521,130.999 130.404,131.774 L 128.826,131.493 C 129.019,130.431 129.46,129.608 130.146,129.024 C 130.833,128.441 131.686,128.149 132.707,128.149 C 133.411,128.149 134.06,128.299 134.651,128.601 C 135.244,128.902 135.697,129.313 136.011,129.833 C 136.324,130.354 136.482,130.906 136.482,131.491 C 136.482,132.047 136.333,132.553 136.034,133.009 C 135.735,133.465 135.293,133.827 134.707,134.097 C 135.469,134.273 136.061,134.637 136.486,135.192 C 136.911,135.745 137.123,136.438 137.123,137.27 C 137.123,138.395 136.712,139.349 135.89,140.131 C 135.069,140.914 134.03,141.305 132.774,141.305 C 131.64,141.305 130.7,140.969 129.952,140.295 C 129.201,139.621 128.774,138.748 128.669,137.678 z "
   id="path41" />
</g>
<path
   d="M 94.579625,118.94243 L 93.773075,120.36743 L 69.548075,106.35493 L 69.548075,105.45243 L 70.354625,104.97743 L 94.579625,118.94243 z "
   id="polygon43" />
</svg>