<?xml version="1.0" encoding="UTF-8" standalone="no"?>
<!-- Created with Inkscape (http://www.inkscape.org/) -->

<svg
   xmlns:dc="http://purl.org/dc/elements/1.1/"
   xmlns:cc="http://creativecommons.org/ns#"
   xmlns:rdf="http://www.w3.org/1999/02/22-rdf-syntax-ns#"
   xmlns:svg="http://www.w3.org/2000/svg"
   xmlns="http://www.w3.org/2000/svg"
   version="1.1"
   width="619.99"
   height="467.56"
   id="svg2">
  <defs
     id="defs4" />
  <metadata
     id="metadata7">
    <rdf:RDF>
      <cc:Work
         rdf:about="">
        <dc:format>image/svg+xml</dc:format>
        <dc:type
           rdf:resource="http://purl.org/dc/dcmitype/StillImage" />
        <dc:title></dc:title>
      </cc:Work>
    </rdf:RDF>
  </metadata>
  <g
     transform="translate(-791.21,-750.84)"
     id="layer1">
    <path
       d="m 1044.1,1206.9 c -1.3,-0.8 -3,-2.6 -3.7,-4.1 -1.1,-2.3 -1.1,-2.8 -0.2,-3.4 1.8,-1.1 2.7,-0.8 3.7,1.6 1.1,2.7 2.7,3.7 5.9,3.7 4.4,0 7.2,-5 5.2,-8.9 -0.9,-1.7 -5.2,-3.2 -7,-2.5 -1,0.4 -1.2,0.2 -1,-1.2 0.1,-1.2 1.1,-1.9 3.1,-2.6 4.3,-1.5 5.5,-4.3 2.6,-7 -2.7,-2.8 -8.3,-1.1 -9.6,2.9 -0.3,0.7 -0.9,0.8 -2,0.4 -2.2,-0.6 -1.7,-2.8 1.3,-5.8 2.9,-3 8.2,-3.6 11.8,-1.1 4.1,2.8 4.8,8 1.6,10.7 -1.4,1.2 -1.4,1.3 1.1,3.6 7.8,7.4 -3.5,19.4 -12.8,13.7 z m 167,0.7 c 0,-1.9 2.1,-4.5 9.3,-11.4 6.7,-6.4 7.7,-7.8 7.7,-9.8 0,-4.9 -7.1,-7.3 -10.7,-3.6 -1.1,1 -1.9,2.4 -1.9,3 0,1.2 -1.2,1.4 -2.8,0.5 -1.2,-0.8 -0.6,-3.5 1.3,-5.6 6.2,-7 18.7,-2.6 17.6,6.3 -0.6,3.7 -3,6.9 -9.4,12.2 -2.8,2.4 -5.2,4.5 -5.2,4.9 0,0.3 3.3,0.6 7.4,0.6 7.4,0 7.4,0 7.4,1.9 l 0,1.8 -10.4,0 c -6.8,0 -10.3,-0.3 -10.3,-0.8 z m -244.4,-12.1 c -4.66,-1.7 -7.1,-4.1 -9.98,-10 -1.71,-3.6 -1.97,-5.1 -1.98,-11.1 0,-7.8 1.53,-12.5 5.38,-16.6 4.44,-4.7 12.65,-6.7 19.31,-5 3.85,1.1 8.51,5.3 10.06,9.1 l 1.11,2.8 -2.74,0.7 c -1.55,0.5 -2.88,0.5 -2.96,0.2 -0.81,-2.2 -3.55,-5.6 -5.54,-6.8 -5.41,-3.3 -13.54,-0.8 -16.87,5.2 -1.63,2.9 -1.85,4.2 -1.85,10.4 0,6 0.22,7.4 1.85,10.3 2.51,4.5 7.03,6.9 12.06,6.5 4.51,-0.5 7.02,-2.3 9.39,-6.8 1.78,-3.4 1.93,-3.4 4.44,-3 1.41,0.2 2.74,0.6 2.81,0.7 0.82,0.8 -3.47,8.2 -5.84,10.2 -4.74,4.1 -12.36,5.4 -18.65,3.2 z m 213.5,0 c -4.7,-1.5 -8.7,-5.2 -11.1,-9.9 -1.8,-3.7 -2,-5 -2,-11.2 0,-6.2 0.2,-7.6 2,-11.3 4.5,-9.1 13.7,-12.9 23.9,-9.8 7.9,2.3 12.7,9.2 13.4,19 1,13.7 -6.4,23.2 -18.4,24 -2.7,0.1 -5.9,-0.2 -7.8,-0.8 z m 14.4,-6.8 c 3.6,-2.9 5.4,-6.6 5.9,-12.1 0.8,-8.4 -2.3,-15.2 -8.2,-17.8 -7.6,-3.5 -16.2,0.4 -18.6,8.5 -3.9,13.2 2.7,24.6 13.8,23.9 3.4,-0.3 4.9,-0.7 7.1,-2.5 z m -195.86,-14.3 0,-21.5 2.96,0 3,0 0,8.9 0,8.9 11.1,0 11.1,0 0,-8.9 0,-8.9 2.9,0 3,0 0,21.5 0,21.4 -3,0 -2.9,0 0,-10 0,-10 -11.1,0 -11.1,0 0,10 0,10 -3,0 -2.96,0 0,-21.4 z m 127.26,0 0,-21.5 3.2,0 3.1,0 10.9,16.4 10.9,16.5 0,-16.5 0,-16.5 3,0 2.9,0 0,21.5 0,21.4 -3.1,0 -3.2,0 -10.8,-16.4 -11,-16.4 0,16.4 0,16.5 -2.9,0 -3,0 0,-21.4 z m 14.6,-62 -0.2,-36.1 -41,-23.7 c -35.9,-20.7 -41.3,-23.7 -42.7,-23 -0.8,0.5 -19.3,11.2 -41.2,23.8 l -39.7,22.9 0,35.7 0,35.7 -2.22,0 -2.22,0 -0.14,-35.6 -0.22,-35.5 -30.49,-12.2 c -29.55,-11.9 -30.48,-12.3 -29.69,-13.9 0.46,-0.9 0.91,-1.7 1.02,-1.8 0.1,-0.1 13.1,4.9 28.89,11.3 15.76,6.3 28.86,11.3 29.08,11.1 0.15,-0.2 -2.74,-12.9 -6.44,-28.3 -3.77,-15.3 -6.8,-28.3 -6.8,-28.7 0,-0.5 0.81,-1 1.85,-1.2 1.77,-0.4 1.85,-0.3 9.02,29.1 4.81,19.8 7.55,29.5 8.14,29.3 0.45,-0.1 18.72,-10.5 40.52,-23.1 l 39.6,-22.9 0,-47.85 0,-47.87 -29,-16.78 c -16,-9.23 -29.14,-16.87 -29.29,-16.98 -0.1,-0.12 0.22,-1.04 0.66,-2.04 l 0.82,-1.84 29.41,16.94 c 16.1,9.31 29.8,16.79 30.4,16.63 0.6,-0.16 19.2,-10.79 41.4,-23.62 l 40.3,-23.31 0.2,-33.75 0.2,-33.75 2.2,0 2.2,0 0,33.85 0,33.84 39.2,22.57 c 21.6,12.41 40.2,23.02 41.4,23.58 2,1 2.7,0.63 31.1,-15.75 15.9,-9.22 29.1,-16.67 29.2,-16.55 0.1,0.11 0.6,0.94 1,1.82 1,1.8 4.5,-0.48 -37.8,23.94 l -19.8,11.41 0,47.74 0,47.77 31.1,17.7 c 17,9.8 31,18.1 31,18.5 0,0.4 -0.5,1.3 -1,2 -0.8,1.1 -4.1,-0.6 -32,-16.7 l -31,-18 -3.4,1.9 c -1.8,1.1 -20.4,11.8 -41.2,23.8 l -37.8,21.8 0,36.1 0,36.1 -2.3,0 -2.2,0 -0.1,-36.1 z m 43.7,-63.4 40.8,-23.6 -0.1,-48.05 -0.2,-48.05 -41,-23.65 -40.9,-23.64 -41.4,23.87 -41.4,23.87 0,47.76 0,47.79 41.3,23.7 c 22.7,13.2 41.4,23.9 41.6,23.7 0.3,-0.1 18.9,-10.7 41.3,-23.7 z m -76.8,-8.6 c -18.9,-11 -34.7,-20 -35.1,-20.1 -0.3,-0.2 -0.1,-1.2 0.4,-2.2 l 1,-2 34.4,19.9 c 19,11 34.7,20 35.1,20.1 0.4,0.2 0.2,1.2 -0.4,2.3 l -1,1.9 -34.4,-19.9 z m 103.6,-62.86 0,-40.69 1.8,0 1.9,0 0,40.69 0,40.66 -1.9,0 -1.8,0 0,-40.66 z m -138.3,-40.41 c -0.4,-1.07 -0.7,-2.03 -0.7,-2.14 0.2,-0.1 15.9,-9.21 35,-20.25 34.1,-19.67 34.8,-20.02 35.7,-18.39 0.7,1.28 0.7,1.84 0,2.47 -0.5,0.45 -15.6,9.24 -33.5,19.54 -17.9,10.3 -33.2,19.18 -34.1,19.73 -1.4,0.9 -1.6,0.8 -2.4,-0.96 z m 310.1,172.17 c -1.3,-0.9 -3,-2.7 -3.7,-4.2 -1.1,-2.3 -1.1,-2.7 -0.1,-3.3 1.8,-1.2 2.7,-0.8 3.6,1.5 1.1,2.7 2.8,3.7 5.9,3.7 4.4,0 7.3,-5 5.2,-8.8 -0.9,-1.7 -5.2,-3.3 -6.9,-2.6 -1.1,0.4 -1.3,0.2 -1.1,-1.1 0.2,-1.2 1.1,-2 3.1,-2.7 4.4,-1.5 5.5,-4.2 2.7,-7 -2.7,-2.8 -8.4,-1.1 -9.7,2.9 -0.2,0.7 -0.9,0.8 -2,0.5 -2.1,-0.7 -1.6,-2.8 1.3,-5.9 3,-3 8.2,-3.5 11.8,-1.1 4.1,2.8 4.9,8 1.6,10.8 -1.4,1.1 -1.3,1.3 1.1,3.6 7.8,7.3 -3.4,19.4 -12.8,13.7 z m -76.6,-11.5 c -4.7,-1.6 -7.1,-4.1 -10,-10 -1.7,-3.5 -2,-5 -2,-11.1 0,-7.8 1.6,-12.4 5.4,-16.6 4.4,-4.6 12.7,-6.7 19.3,-4.9 3.9,1 8.5,5.2 10.1,9.1 l 1.1,2.7 -2.8,0.8 c -1.5,0.4 -2.8,0.5 -2.9,0.2 -0.8,-2.2 -3.6,-5.6 -5.6,-6.9 -5.4,-3.3 -13.5,-0.7 -16.8,5.3 -1.7,2.8 -1.9,4.2 -1.9,10.3 0,6.1 0.2,7.4 1.9,10.4 2.5,4.4 7,6.8 12,6.4 4.5,-0.4 7.1,-2.2 9.4,-6.7 1.8,-3.4 2,-3.5 4.5,-3.1 1.4,0.3 2.7,0.6 2.8,0.7 0.8,0.8 -3.5,8.3 -5.9,10.3 -4.7,4.1 -12.3,5.3 -18.6,3.1 z m 31.3,-21.1 0,-21.4 2.9,0 3,0 0,8.8 0,8.9 11.1,0 11.1,0 0,-8.9 0,-8.8 3,0 2.9,0 0,21.4 0,21.5 -2.9,0 -3,0 0,-10 0,-10 -11.1,0 -11.1,0 0,10 0,10 -3,0 -2.9,0 0,-21.5 z m -491.08,-2.2 c -1.33,-0.8 -2.98,-2.7 -3.67,-4.2 -1.1,-2.2 -1.12,-2.7 -0.18,-3.3 1.84,-1.2 2.72,-0.8 3.68,1.6 1.1,2.6 2.74,3.7 5.89,3.7 4.37,0 7.28,-5.1 5.2,-8.9 -0.88,-1.7 -5.19,-3.3 -6.98,-2.5 -1.02,0.3 -1.23,0.1 -1.03,-1.2 0.17,-1.2 1.1,-1.9 3.12,-2.7 4.39,-1.4 5.44,-4.2 2.67,-6.9 -2.75,-2.8 -8.4,-1.1 -9.72,2.9 -0.23,0.6 -0.89,0.8 -1.99,0.4 -2.1,-0.7 -1.6,-2.8 1.36,-5.8 2.94,-3.1 8.21,-3.6 11.78,-1.1 4.08,2.8 4.83,7.9 1.57,10.7 -1.34,1.2 -1.31,1.3 1.13,3.6 7.79,7.3 -3.48,19.4 -12.83,13.7 z M 879.4,1063 c -4.67,-1.6 -7.1,-4 -9.97,-10 -1.72,-3.5 -1.98,-5 -1.99,-11.1 0,-7.8 1.51,-12.4 5.39,-16.5 4.41,-4.7 12.61,-6.8 19.28,-5 3.87,1.1 8.51,5.2 10.07,9.1 l 1.12,2.7 -2.77,0.8 c -1.53,0.4 -2.85,0.5 -2.96,0.2 -0.75,-2.2 -3.53,-5.6 -5.54,-6.8 -5.35,-3.3 -13.54,-0.8 -16.84,5.2 -1.61,2.9 -1.85,4.2 -1.85,10.3 0,6.1 0.24,7.4 1.85,10.4 2.47,4.4 7.05,6.9 12.08,6.4 4.45,-0.4 7,-2.2 9.38,-6.7 1.78,-3.4 1.94,-3.5 4.44,-3 1.43,0.2 2.69,0.6 2.82,0.6 0.79,0.8 -3.48,8.3 -5.88,10.3 -4.73,4.1 -12.38,5.3 -18.63,3.1 z m -78.19,-21.1 0,-21.4 2.96,0 2.96,0 0,8.8 0,8.9 11.1,0 11.09,0 0,-8.9 0,-8.8 2.96,0 2.96,0 0,21.4 0,21.5 -2.96,0 -2.96,0 0,-10 0,-10 -11.09,0 -11.1,0 0,10 0,10 -2.96,0 -2.96,0 0,-21.5 z m 110.41,-24.4 c -1.33,-0.8 -2.98,-2.7 -3.67,-4.1 -1.09,-2.3 -1.12,-2.7 -0.17,-3.3 1.83,-1.2 2.71,-0.8 3.68,1.5 1.1,2.7 2.73,3.7 5.89,3.7 4.36,0 7.28,-5 5.2,-8.9 -0.89,-1.6 -5.19,-3.2 -6.99,-2.5 -1.02,0.4 -1.24,0.1 -1.04,-1.2 0.18,-1.1 1.11,-1.9 3.14,-2.6 4.39,-1.5 5.43,-4.3 2.66,-7 -2.75,-2.8 -8.4,-1.1 -9.73,2.9 -0.21,0.6 -0.88,0.8 -1.99,0.4 -2.1,-0.6 -1.59,-2.8 1.37,-5.8 2.94,-3.06 8.22,-3.54 11.77,-1.1 4.09,2.8 4.85,8 1.59,10.7 -1.36,1.2 -1.32,1.3 1.13,3.6 7.79,7.4 -3.49,19.4 -12.84,13.7 z m 32.88,-11.4 c -4.66,-1.7 -7.09,-4.1 -9.96,-10.1 -1.72,-3.5 -1.99,-5 -1.99,-11.06 0,-7.77 1.51,-12.44 5.38,-16.53 4.42,-4.65 12.62,-6.76 19.3,-4.95 3.85,1.04 8.51,5.22 10.07,9.05 l 1.11,2.75 -2.74,0.76 c -1.56,0.42 -2.89,0.52 -2.96,0.22 -0.81,-2.19 -3.55,-5.61 -5.55,-6.84 -5.37,-3.27 -13.57,-0.74 -16.86,5.18 -1.61,2.9 -1.85,4.24 -1.85,10.36 0,6.16 0.24,7.46 1.85,10.36 2.47,4.4 7.04,6.9 12.07,6.4 4.49,-0.4 7.01,-2.2 9.38,-6.7 1.77,-3.3 1.92,-3.5 4.44,-3 1.4,0.3 2.73,0.6 2.81,0.7 0.81,0.8 -3.48,8.2 -5.85,10.3 -4.73,4 -12.39,5.3 -18.65,3.1 z m -78.18,-21.16 0,-21.45 2.95,0 2.96,0 0,8.87 0,8.88 11.1,0 11.1,0 0,-8.88 0,-8.87 2.96,0 2.96,0 0,21.45 0,21.46 -2.96,0 -2.96,0 0,-10 0,-9.98 -11.1,0 -11.1,0 0,9.98 0,10 -2.96,0 -2.95,0 0,-21.46 z m 62.14,-70.34 c 0,-1.89 2.12,-4.48 9.33,-11.41 6.62,-6.36 7.7,-7.73 7.7,-9.75 0,-4.92 -7.09,-7.28 -10.78,-3.61 -1,1 -1.81,2.33 -1.81,2.96 0,1.26 -1.29,1.48 -2.85,0.49 -1.18,-0.75 -0.56,-3.43 1.28,-5.52 6.2,-7.06 18.82,-2.56 17.63,6.28 -0.5,3.73 -2.95,6.91 -9.42,12.22 -2.84,2.34 -5.16,4.52 -5.16,4.84 0,0.33 3.33,0.6 7.4,0.6 7.4,0 7.4,0 7.4,1.85 l 0,1.85 -10.36,0 c -6.84,0 -10.36,-0.27 -10.36,-0.8 z m 452.04,0 c 0,-1.89 2.1,-4.48 9.3,-11.41 6.7,-6.36 7.7,-7.73 7.7,-9.75 0,-4.92 -7.1,-7.28 -10.7,-3.61 -1.1,1 -1.9,2.33 -1.9,2.96 0,1.26 -1.2,1.48 -2.8,0.49 -1.2,-0.75 -0.6,-3.43 1.3,-5.52 6.2,-7.06 18.8,-2.56 17.6,6.28 -0.5,3.73 -3,6.91 -9.4,12.22 -2.8,2.34 -5.2,4.52 -5.2,4.84 0,0.33 3.3,0.6 7.4,0.6 7.4,0 7.4,0 7.4,1.85 l 0,1.85 -10.3,0 c -6.9,0 -10.4,-0.27 -10.4,-0.8 z M 897.6,902.53 c -4.7,-1.54 -8.74,-5.15 -11.09,-9.91 -1.82,-3.73 -2.07,-5.06 -2.07,-11.26 0,-6.2 0.25,-7.52 2.08,-11.26 4.45,-9.07 13.69,-12.88 23.87,-9.84 7.84,2.33 12.66,9.19 13.41,19.03 1.03,13.65 -6.34,23.24 -18.42,23.98 -2.74,0.16 -5.95,-0.14 -7.78,-0.74 z m 14.39,-6.84 c 3.58,-2.84 5.42,-6.61 5.91,-12.08 0.77,-8.4 -2.36,-15.19 -8.22,-17.85 -7.65,-3.47 -16.2,0.44 -18.59,8.49 -3.95,13.28 2.64,24.65 13.87,23.94 3.36,-0.22 4.82,-0.74 7.03,-2.5 z m 437.61,6.84 c -4.7,-1.54 -8.7,-5.15 -11.1,-9.91 -1.8,-3.73 -2,-5.06 -2,-11.26 0,-6.2 0.2,-7.52 2,-11.26 4.5,-9.07 13.7,-12.88 23.9,-9.84 7.9,2.33 12.7,9.19 13.4,19.03 1.1,13.65 -6.3,23.24 -18.4,23.98 -2.7,0.16 -5.9,-0.14 -7.8,-0.74 z m 14.4,-6.84 c 3.6,-2.84 5.5,-6.61 5.9,-12.08 0.8,-8.4 -2.3,-15.19 -8.2,-17.85 -7.6,-3.47 -16.2,0.44 -18.6,8.49 -3.9,13.28 2.7,24.65 13.9,23.94 3.4,-0.22 4.9,-0.74 7,-2.5 z m -408.17,-14.33 0,-21.45 3.18,0 3.11,0 10.95,16.44 10.87,16.44 0,-16.46 0,-16.46 2.96,0 2.96,0 0,21.46 0,21.45 -3.11,0 -3.18,0 -10.87,-16.44 -10.95,-16.44 0,16.46 0,16.46 -2.96,0 -2.96,0 0,-21.46 z m 339.57,0 0,-21.45 3.2,0 3.1,0 11,16.44 10.8,16.44 0,-16.46 0,-16.46 3,0 2.9,0 0,21.46 0,21.45 -3.1,0 -3.1,0 -10.9,-16.44 -11,-16.44 0,16.46 0,16.46 -2.9,0 -3,0 0,-21.46 z m -81.9,-65.84 c -1.3,-0.81 -3,-2.66 -3.7,-4.11 -1.1,-2.29 -1.1,-2.73 -0.1,-3.32 1.7,-1.16 2.6,-0.8 3.6,1.54 1.1,2.65 2.7,3.67 5.9,3.67 4.4,0 7.3,-4.98 5.2,-8.87 -0.9,-1.65 -5.2,-3.21 -7,-2.52 -1,0.39 -1.2,0.16 -1,-1.16 0.1,-1.17 1.1,-1.95 3.1,-2.64 4.4,-1.5 5.5,-4.24 2.7,-7.01 -2.8,-2.75 -8.4,-1.05 -9.7,2.92 -0.2,0.65 -0.9,0.8 -2,0.45 -2.2,-0.67 -1.6,-2.82 1.3,-5.87 3,-3.03 8.2,-3.51 11.8,-1.08 4.1,2.79 4.9,7.95 1.6,10.74 -1.4,1.16 -1.3,1.28 1.1,3.59 7.8,7.34 -3.5,19.37 -12.8,13.67 z m -76.6,-11.43 c -4.7,-1.66 -7.1,-4.11 -10,-10.03 -1.7,-3.53 -2,-5 -2,-11.09 0,-7.77 1.5,-12.44 5.4,-16.53 4.4,-4.66 12.6,-6.76 19.3,-4.96 3.8,1.04 8.5,5.22 10.1,9.06 l 1.1,2.74 -2.8,0.76 c -1.5,0.42 -2.9,0.53 -2.9,0.22 -0.8,-2.19 -3.6,-5.6 -5.6,-6.83 -5.4,-3.27 -13.5,-0.75 -16.9,5.18 -1.6,2.9 -1.8,4.24 -1.8,10.36 0,6.11 0.2,7.45 1.8,10.35 2.6,4.45 7.1,6.89 12.1,6.44 4.5,-0.39 7,-2.22 9.4,-6.71 1.8,-3.37 1.9,-3.49 4.4,-3.03 1.4,0.26 2.8,0.58 2.9,0.71 0.8,0.77 -3.5,8.22 -5.9,10.27 -4.7,4.06 -12.3,5.32 -18.6,3.09 z m 31.3,-21.12 0,-21.46 2.9,0 3,0 0,8.88 0,8.88 11.1,0 11.1,0 0,-8.88 0,-8.88 2.9,0 3,0 0,21.46 0,21.45 -3,0 -2.9,0 0,-9.99 0,-9.99 -11.1,0 -11.1,0 0,9.99 0,9.99 -3,0 -2.9,0 0,-21.45 z"
       id="path2996"
       style="fill:#000000" />
  </g>
</svg>
