<?xml version="1.0" encoding="UTF-8" standalone="no"?>
<svg
   xmlns:dc="http://purl.org/dc/elements/1.1/"
   xmlns:cc="http://creativecommons.org/ns#"
   xmlns:rdf="http://www.w3.org/1999/02/22-rdf-syntax-ns#"
   xmlns:svg="http://www.w3.org/2000/svg"
   xmlns="http://www.w3.org/2000/svg"
   xmlns:sodipodi="http://sodipodi.sourceforge.net/DTD/sodipodi-0.dtd"
   xmlns:inkscape="http://www.inkscape.org/namespaces/inkscape"
   version="1.0"
   width="277.5"
   height="565.77771"
   viewBox="0 0 277.5 565.77768"
   xml:space="preserve"
   id="svg2"
   inkscape:version="0.48.2 r9819"
   sodipodi:docname="p-xylene_topo.svg"><metadata
   id="metadata36"><rdf:RDF><cc:Work
       rdf:about=""><dc:format>image/svg+xml</dc:format><dc:type
         rdf:resource="http://purl.org/dc/dcmitype/StillImage" /><dc:title /></cc:Work></rdf:RDF></metadata><defs
   id="defs34" /><sodipodi:namedview
   pagecolor="#ffffff"
   bordercolor="#666666"
   borderopacity="1"
   objecttolerance="10"
   gridtolerance="10"
   guidetolerance="10"
   inkscape:pageopacity="0"
   inkscape:pageshadow="2"
   inkscape:window-width="1268"
   inkscape:window-height="894"
   id="namedview32"
   showgrid="false"
   inkscape:zoom="1"
   inkscape:cx="-181.72067"
   inkscape:cy="126.74037"
   inkscape:window-x="0"
   inkscape:window-y="0"
   inkscape:window-maximized="0"
   inkscape:current-layer="g4"
   showborder="true"
   fit-margin-top="10"
   fit-margin-left="10"
   fit-margin-right="10"
   fit-margin-bottom="10" />
<g
   transform="translate(10,-38.253791)"
   id="g4">
<polygon
   points="8,251.9 8,390.9 8,390.9 0,395.9 0,246.9 "
   id="polygon6" />

<polygon
   points="8,390.9 129,460.9 129,460.9 129,469.9 0,395.9 "
   id="polygon10" />
<polygon
   points="129,460.9 249.5,390.9 249.5,390.9 257.5,395.9 129,469.9 "
   id="polygon12" />

<polygon
   points="249.5,390.9 249.5,251.9 249.5,251.9 257.5,246.9 257.5,395.9 "
   id="polygon16" />
<polygon
   points="129,181.9 129,177.4 133,174.9 257.5,246.9 249.5,251.9 129,181.9 "
   id="polygon18" />

<polygon
   points="8,251.9 0,246.9 125,174.9 129,177.4 129,181.9 8,251.9 "
   id="polygon22" />



<polygon
   points="129,177.4 125,174.9 125,85.9 125,85.9 133,85.9 133,174.9 "
   id="polygon30"
   transform="matrix(1,0,0,1.420765,-0.42688577,-73.789932)" />
<polygon
   points="125,85.9 125,85.9 133,85.9 133,174.9 129,177.4 125,174.9 "
   id="polygon30-0"
   transform="matrix(1,0,0,-1.420765,-0.11376198,716.07523)" /><path
   sodipodi:type="arc"
   style="opacity:1;fill:none;fill-opacity:1;stroke:#000000;stroke-width:13.93800734999999900;stroke-linecap:round;stroke-linejoin:round;stroke-miterlimit:4;stroke-opacity:1;stroke-dasharray:none;stroke-dashoffset:0"
   id="path3842"
   sodipodi:cx="-211.73535"
   sodipodi:cy="320.74527"
   sodipodi:rx="148.55624"
   sodipodi:ry="152.8251"
   d="m -63.179108,320.74527 c 0,84.40297 -66.510892,152.8251 -148.556242,152.8251 -82.04535,0 -148.55625,-68.42213 -148.55625,-152.8251 0,-84.40297 66.5109,-152.8251 148.55625,-152.8251 82.04535,0 148.556242,68.42213 148.556242,152.8251 z"
   transform="matrix(0.58215836,0,0,0.56589711,252.57449,138.92428)" /></g>
</svg>