<svg xmlns:rdf="http://www.w3.org/1999/02/22-rdf-syntax-ns#" xmlns="http://www.w3.org/2000/svg" height="81" shape-rendering="geometricPrecision" width="162" version="1.1" xmlns:cc="http://creativecommons.org/ns#" xmlns:dc="http://purl.org/dc/elements/1.1/" preserveAspectRatio="xMidYMid">
<title>p-xylene</title>
<metadata>
<rdf:RDF>
<cc:Work rdf:about="">
<dc:format>image/svg+xml</dc:format>
<dc:type rdf:resource="http://purl.org/dc/dcmitype/StillImage"/>
<dc:title>p-xylene</dc:title>
<cc:license rdf:resource="http://creativecommons.org/licenses/publicdomain/"/>
</cc:Work>
<cc:License rdf:about="http://creativecommons.org/licenses/publicdomain/">
<cc:permits rdf:resource="http://creativecommons.org/ns#Reproduction"/>
<cc:permits rdf:resource="http://creativecommons.org/ns#Distribution"/>
<cc:permits rdf:resource="http://creativecommons.org/ns#DerivativeWorks"/>
</cc:License>
</rdf:RDF>
</metadata>
<path d="M130.8125,2.125c-1.26303,0.00002-2.41732,0.26759-3.46875,0.84375-1.05144,0.57618-1.86784,1.42123-2.4375,2.53125-0.56966,1.11003-0.84376,2.41538-0.84375,3.90625-0.00001,1.3672,0.24544,2.65235,0.75,3.84375,0.50456,1.19141,1.2207,2.09049,2.1875,2.71875,0.9668,0.62825,2.23828,0.96875,3.78125,0.96875,1.49088,0,2.74934-0.43294,3.78125-1.25,1.03189-0.81705,1.7591-2.00651,2.15625-3.5625l-1.90625-0.46875c-0.26042,1.20443-0.76433,2.10677-1.5,2.71875-0.73568,0.61198-1.62631,0.93751-2.6875,0.9375-0.8724,0.00001-1.68881-0.23828-2.4375-0.6875-0.7487-0.44922-1.30144-1.12304-1.65625-2.03125-0.35482-0.90819-0.53125-1.97005-0.53125-3.1875,0-0.94401,0.13802-1.86132,0.4375-2.75,0.29948-0.88866,0.82356-1.59764,1.5625-2.125,0.73892-0.52733,1.68098-0.78123,2.78125-0.78125,0.95702,0.00002,1.74348,0.21225,2.375,0.6875,0.6315,0.47527,1.10546,1.23959,1.4375,2.28125l1.875-0.4375c-0.38413-1.3216-1.08595-2.33332-2.0625-3.0625-0.97657-0.72915-2.16147-1.09373-3.59375-1.09375zm8.28125,0.25,0,14.3125,1.90625,0,0-6.75,7.4375,0,0,6.75,1.90625,0,0-14.3125-1.90625,0,0,5.875-7.4375,0,0-5.875-1.90625,0zm-58.75,6.3125-25.53125,14.75,0,28.8125-15.6875,9.0625,0.59375,1.03125,15.6875-9.0625,24.9375,14.40625,25.5625-14.75,0-28.78125,16.0625-9.3125-0.59375-1.03125-16.09375,9.28125-24.9375-14.40625zm0,1.40625,24.34375,14.0625,0,28.09375-24.34375,14.0625-24.34375-14.0625,0-28.09375,24.34375-14.0625zm75.59375,0.34375c-0.84961,0.00001-1.55371,0.23292-2.125,0.71875-0.57129,0.48585-0.93262,1.17872-1.09375,2.0625l1.3125,0.21875c0.09765-0.64453,0.31445-1.11522,0.65625-1.4375,0.34179-0.32226,0.76855-0.49999,1.28125-0.5,0.51757,0.00001,0.95409,0.18262,1.28125,0.5,0.32714,0.31739,0.5,0.70411,0.5,1.1875,0,0.61036-0.23828,1.05079-0.6875,1.34375-0.44922,0.29297-0.93848,0.43751-1.5,0.4375-0.05372,0-0.13085,0.01-0.21875,0l-0.15625,1.15625c0.37109-0.09768,0.68847-0.15625,0.9375-0.15625,0.61035,0,1.10448,0.20068,1.5,0.59375,0.3955,0.39307,0.59374,0.89453,0.59375,1.5-0.00001,0.63477-0.19776,1.16406-0.625,1.59375-0.42725,0.42969-0.97364,0.65625-1.59375,0.65625-0.52247,0-0.94873-0.1704-1.3125-0.5-0.36377-0.32958-0.62988-0.87792-0.78125-1.625l-1.3125,0.1875c0.08788,0.89355,0.43994,1.62598,1.0625,2.1875,0.62256,0.56153,1.40137,0.84375,2.34375,0.84375,1.04492,0,1.91015-0.31689,2.59375-0.96875,0.68359-0.65185,1.03124-1.46875,1.03125-2.40625-0.00001-0.69335-0.17969-1.25732-0.53125-1.71875-0.35157-0.46142-0.83399-0.75976-1.46875-0.90625,0.48827-0.22461,0.84472-0.52538,1.09375-0.90625,0.24901-0.38085,0.37499-0.81738,0.375-1.28125-0.00001-0.48828-0.14503-0.94042-0.40625-1.375-0.26124-0.43456-0.63184-0.77978-1.125-1.03125-0.49317-0.25146-1.03907-0.37499-1.625-0.375zm-75.28125,4.40625-0.59375,1.03125,19.75,11.40625,0.59375-1.03125-19.75-11.40625zm-20.65625,11.9375,0,22.8125,1.1875,0,0-22.8125-1.1875,0zm39.8125,22.28125-19.75,11.40625,0.59375,1.03125,19.75-11.40625-0.59375-1.03125zm-68.84375,10.65625c-1.26302,0.00001-2.44857,0.29885-3.5,0.875-1.05143,0.57619-1.83659,1.42124-2.40625,2.53125-0.56966,1.11004-0.875,2.38412-0.875,3.875,0,1.36719,0.27669,2.65235,0.78125,3.84375,0.50455,1.19141,1.2207,2.12175,2.1875,2.75,0.96679,0.62826,2.23827,0.9375,3.78125,0.9375,1.49087,0,2.74934-0.40169,3.78125-1.21875,1.03189-0.81706,1.72785-2.00651,2.125-3.5625l-1.875-0.5c-0.26043,1.20443-0.76433,2.13803-1.5,2.75-0.73569,0.61198-1.62631,0.90625-2.6875,0.90625-0.87241,0-1.68881-0.23828-2.4375-0.6875-0.74871-0.44921-1.30143-1.12304-1.65625-2.03125-0.35482-0.9082-0.53126-1.97004-0.53125-3.1875-0.00001-0.944,0.13801-1.86132,0.4375-2.75,0.29947-0.88866,0.82357-1.59765,1.5625-2.125,0.73893-0.52733,1.64973-0.78124,2.75-0.78125,0.95702,0.00001,1.77473,0.2435,2.40625,0.71875,0.6315,0.47527,1.10545,1.2396,1.4375,2.28125l1.84375-0.46875c-0.38413-1.3216-1.0547-2.33332-2.03125-3.0625-0.97658-0.72916-2.16146-1.09374-3.59375-1.09375zm-28.96875,0.25,0,14.3125,1.90625,0,0-6.75,7.4375,0,0,6.75,1.875,0,0-14.3125-1.875,0,0,5.875-7.4375,0,0-5.875-1.90625,0zm16.84375,8.0625c-0.84961,0.00001-1.55371,0.23292-2.125,0.71875-0.57129,0.48585-0.93262,1.17872-1.09375,2.0625l1.3125,0.21875c0.09765-0.64452,0.31445-1.11523,0.65625-1.4375,0.34179-0.32226,0.76856-0.46874,1.28125-0.46875,0.51758,0.00001,0.92285,0.15138,1.25,0.46875,0.32715,0.31739,0.49999,0.70411,0.5,1.1875-0.00001,0.61036-0.20704,1.08204-0.65625,1.375-0.44922,0.29298-0.96973,0.4375-1.53125,0.4375-0.05372,0-0.13085-0.02125-0.21875-0.03125l-0.125,1.15625c0.37109-0.09769,0.65723-0.12499,0.90625-0.125,0.61035,0.00001,1.13574,0.16944,1.53125,0.5625,0.39551,0.39307,0.59374,0.89454,0.59375,1.5-0.00001,0.63477-0.22901,1.16407-0.65625,1.59375-0.42725,0.42969-0.94239,0.65626-1.5625,0.65625-0.52246,0.00001-0.97999-0.17041-1.34375-0.5-0.36378-0.32959-0.59863-0.84668-0.75-1.59375l-1.34375,0.15625c0.08789,0.89356,0.47119,1.62598,1.09375,2.1875,0.62255,0.56152,1.40136,0.84375,2.34375,0.84375,1.04491,0,1.91015-0.31689,2.59375-0.96875,0.68359-0.65185,0.99999-1.46875,1-2.40625-0.00001-0.69336-0.14845-1.25732-0.5-1.71875-0.35157-0.46142-0.86525-0.75976-1.5-0.90625,0.48827-0.2246,0.87597-0.52538,1.125-0.90625,0.24902-0.38085,0.37499-0.81737,0.375-1.28125-0.00001-0.48827-0.14502-0.94042-0.40625-1.375-0.26123-0.43456-0.63184-0.77977-1.125-1.03125-0.49317-0.25145-1.03907-0.37499-1.625-0.375z" fill="#000"/>
</svg>
